ffmpeg version N-82167-g5e96558 Copyright (c) 2000-2016 the FFmpeg developers
  built with gcc 5.4.0 (Ubuntu 5.4.0-6ubuntu1~16.04.2) 20160609
  configuration: --prefix=/root/ffmpeg_build --pkg-config-flags=--static --extra-cflags=-I/root/ffmpeg_build/include --extra-ldflags=-L/root/ffmpeg_build/lib --bindir=/root/bin --enable-gpl --enable-libass --enable-libfdk-aac --enable-libfreetype --enable-libmp3lame --enable-libopus --enable-libtheora --enable-libvorbis --enable-libx264 --enable-libx265 --enable-nonfree
  libavutil      55. 35.100 / 55. 35.100
  libavcodec     57. 65.100 / 57. 65.100
  libavformat    57. 57.100 / 57. 57.100
  libavdevice    57.  2.100 / 57.  2.100
  libavfilter     6. 66.100 /  6. 66.100
  libswscale      4.  3.100 /  4.  3.100
  libswresample   2.  4.100 /  2.  4.100
  libpostproc    54.  2.100 / 54.  2.100
Input #0, matroska,webm, from '/media/yubikiri/bot/queue/3AnimePahe_Detective_Conan_-_056_720p_Fansub.mkv':
  Metadata:
    title           : 3|Text||0|0
    ALBUM           : Anime
    LANGUAGE        : Undefined
    ENCODER         : Lavf57.57.100
  Duration: 00:24:29.39, start: 0.000000, bitrate: 976 kb/s
    Stream #0:0: Video: mpeg4 (Advanced Simple Profile), yuv420p, 640x480 [SAR 1:1 DAR 4:3], 23.98 fps, 23.98 tbr, 1k tbn, 23.98 tbc (default)
    Metadata:
      DURATION        : 00:24:29.385000000
    Stream #0:1: Audio: mp3, 48000 Hz, stereo, s16p, 128 kb/s (default)
    Metadata:
      DURATION        : 00:24:29.352000000
[libx264 @ 0x32a6060] using SAR=1/1
[libx264 @ 0x32a6060] using cpu capabilities: MMX2 SSE2Fast SSSE3 SSE4.2 AVX FMA3 AVX2 LZCNT BMI2
[libx264 @ 0x32a6060] profile High, level 3.1
[libx264 @ 0x32a6060] 264 - core 148 r2643 5c65704 - H.264/MPEG-4 AVC codec - Copyleft 2003-2015 - http://www.videolan.org/x264.html - options: cabac=1 ref=8 deblock=1:1:1 analyse=0x3:0x133 me=umh subme=7 psy=1 psy_rd=0.00:0.00 mixed_ref=1 me_range=8 chroma_me=1 trellis=0 8x8dct=1 cqm=0 deadzone=21,11 fast_pskip=1 chroma_qp_offset=0 threads=8 lookahead_threads=2 sliced_threads=0 nr=0 decimate=1 interlaced=0 bluray_compat=0 constrained_intra=0 bframes=3 b_pyramid=2 b_adapt=2 b_bias=0 direct=1 weightb=1 open_gop=0 weightp=2 keyint=240 keyint_min=24 scenecut=40 intra_refresh=0 rc_lookahead=60 rc=crf mbtree=1 crf=27.0 qcomp=0.60 qpmin=0 qpmax=69 qpstep=4 ip_ratio=1.40 aq=1:1.00
[libfdk_aac @ 0x3239d80] Note, the VBR setting is unsupported and only works with some parameter combinations
Output #0, mp4, to '/media/yubikiri/bot/queue/3AnimePahe_Detective_Conan_-_056_720p_Fansub.mkv_encoded.mp4':
  Metadata:
    encoder         : Lavf57.57.100
    Stream #0:0: Video: h264 (libx264) ([33][0][0][0] / 0x0021), yuv420p, 640x480 [SAR 1:1 DAR 4:3], q=-1--1, 23.98 fps, 24k tbn, 23.98 tbc (default)
    Metadata:
      encoder         : Lavc57.65.100 libx264
    Side data:
      cpb: bitrate max/min/avg: 0/0/0 buffer size: 0 vbv_delay: -1
    Stream #0:1: Audio: aac (libfdk_aac) (HE-AACv2) ([64][0][0][0] / 0x0040), 48000 Hz, stereo, s16, 48 kb/s (default)
    Metadata:
      encoder         : Lavc57.65.100 libfdk_aac
Stream mapping:
  Stream #0:0 -> #0:0 (mpeg4 (native) -> h264 (libx264))
  Stream #0:1 -> #0:1 (mp3 (native) -> aac (libfdk_aac))
Press [q] to stop, [?] for help
frame=  122 fps=0.0 q=32.0 size=      99kB time=00:00:05.22 bitrate= 154.4kbits/s dup=1 drop=0 speed=10.4x    frame=  167 fps=165 q=32.0 size=     234kB time=00:00:07.14 bitrate= 268.5kbits/s dup=1 drop=0 speed=7.06x    frame=  215 fps=142 q=32.0 size=     382kB time=00:00:09.11 bitrate= 343.1kbits/s dup=1 drop=0 speed=   6x    frame=  282 fps=138 q=32.0 size=     488kB time=00:00:11.92 bitrate= 335.5kbits/s dup=1 drop=0 speed=5.84x    frame=  350 fps=138 q=32.0 size=     617kB time=00:00:14.74 bitrate= 342.6kbits/s dup=1 drop=0 speed=5.79x    frame=  446 fps=146 q=32.0 size=     789kB time=00:00:18.75 bitrate= 344.8kbits/s dup=1 drop=0 speed=6.13x    frame=  498 fps=140 q=32.0 size=     943kB time=00:00:20.92 bitrate= 369.1kbits/s dup=1 drop=0 speed=5.88x    frame=  571 fps=140 q=32.0 size=    1067kB time=00:00:23.95 bitrate= 364.9kbits/s dup=1 drop=0 speed=5.89x    frame=  614 fps=134 q=32.0 size=    1172kB time=00:00:25.79 bitrate= 372.2kbits/s dup=1 drop=0 speed=5.63x    frame=  666 fps=131 q=32.0 size=    1262kB time=00:00:27.92 bitrate= 370.3kbits/s dup=1 drop=0 speed=5.49x    frame=  745 fps=133 q=32.0 size=    1353kB time=00:00:31.21 bitrate= 355.1kbits/s dup=1 drop=0 speed=5.57x    frame=  815 fps=133 q=32.0 size=    1469kB time=00:00:34.15 bitrate= 352.4kbits/s dup=1 drop=0 speed=5.57x    frame=  861 fps=130 q=32.0 size=    1575kB time=00:00:36.07 bitrate= 357.6kbits/s dup=1 drop=0 speed=5.44x    frame=  930 fps=130 q=32.0 size=    1652kB time=00:00:38.93 bitrate= 347.5kbits/s dup=1 drop=0 speed=5.46x    frame=  977 fps=128 q=32.0 size=    1741kB time=00:00:40.93 bitrate= 348.3kbits/s dup=1 drop=0 speed=5.35x    frame= 1003 fps=123 q=32.0 size=    1870kB time=00:00:42.00 bitrate= 364.7kbits/s dup=1 drop=0 speed=5.15x    frame= 1047 fps=121 q=32.0 size=    1985kB time=00:00:43.84 bitrate= 370.9kbits/s dup=1 drop=0 speed=5.06x    frame= 1089 fps=119 q=32.0 size=    2063kB time=00:00:45.59 bitrate= 370.7kbits/s dup=1 drop=0 speed=4.98x    frame= 1143 fps=118 q=32.0 size=    2149kB time=00:00:47.85 bitrate= 367.9kbits/s dup=1 drop=0 speed=4.95x    frame= 1179 fps=116 q=32.0 size=    2290kB time=00:00:49.34 bitrate= 380.2kbits/s dup=1 drop=0 speed=4.85x    frame= 1213 fps=113 q=32.0 size=    2387kB time=00:00:50.75 bitrate= 385.3kbits/s dup=1 drop=0 speed=4.74x    frame= 1251 fps=111 q=32.0 size=    2480kB time=00:00:52.33 bitrate= 388.3kbits/s dup=1 drop=0 speed=4.65x    frame= 1291 fps=110 q=32.0 size=    2562kB time=00:00:53.99 bitrate= 388.7kbits/s dup=1 drop=0 speed=4.59x    frame= 1346 fps=110 q=32.0 size=    2671kB time=00:00:56.29 bitrate= 388.6kbits/s dup=1 drop=0 speed=4.59x    frame= 1427 fps=112 q=32.0 size=    2751kB time=00:00:59.67 bitrate= 377.7kbits/s dup=1 drop=0 speed=4.68x    frame= 1500 fps=113 q=32.0 size=    2834kB time=00:01:02.69 bitrate= 370.3kbits/s dup=1 drop=0 speed=4.73x    frame= 1554 fps=113 q=32.0 size=    2944kB time=00:01:04.96 bitrate= 371.2kbits/s dup=1 drop=0 speed=4.72x    frame= 1599 fps=112 q=32.0 size=    3024kB time=00:01:06.88 bitrate= 370.4kbits/s dup=1 drop=0 speed=4.68x    frame= 1644 fps=111 q=32.0 size=    3121kB time=00:01:08.71 bitrate= 372.1kbits/s dup=1 drop=0 speed=4.65x    frame= 1693 fps=111 q=32.0 size=    3209kB time=00:01:10.76 bitrate= 371.5kbits/s dup=1 drop=0 speed=4.63x    frame= 1746 fps=111 q=32.0 size=    3302kB time=00:01:12.98 bitrate= 370.6kbits/s dup=1 drop=0 speed=4.62x    frame= 1829 fps=112 q=32.0 size=    3412kB time=00:01:16.48 bitrate= 365.5kbits/s dup=1 drop=0 speed= 4.7x    frame= 1892 fps=113 q=32.0 size=    3531kB time=00:01:19.08 bitrate= 365.8kbits/s dup=1 drop=0 speed=4.71x    frame= 1962 fps=113 q=32.0 size=    3644kB time=00:01:21.98 bitrate= 364.2kbits/s dup=1 drop=0 speed=4.74x    frame= 2014 fps=113 q=32.0 size=    3749kB time=00:01:24.16 bitrate= 365.0kbits/s dup=1 drop=0 speed=4.73x    frame= 2043 fps=112 q=32.0 size=    3859kB time=00:01:25.35 bitrate= 370.4kbits/s dup=1 drop=0 speed=4.66x    frame= 2077 fps=110 q=32.0 size=    4019kB time=00:01:26.76 bitrate= 379.5kbits/s dup=1 drop=0 speed=4.61x    frame= 2116 fps=109 q=32.0 size=    4130kB time=00:01:28.42 bitrate= 382.6kbits/s dup=1 drop=0 speed=4.58x    frame= 2179 fps=110 q=32.0 size=    4245kB time=00:01:31.07 bitrate= 381.8kbits/s dup=1 drop=0 speed=4.59x    frame= 2248 fps=111 q=32.0 size=    4336kB time=00:01:33.88 bitrate= 378.3kbits/s dup=1 drop=0 speed=4.62x    frame= 2352 fps=113 q=32.0 size=    4413kB time=00:01:38.24 bitrate= 368.0kbits/s dup=1 drop=0 speed=4.72x    frame= 2428 fps=114 q=32.0 size=    4492kB time=00:01:41.44 bitrate= 362.8kbits/s dup=1 drop=0 speed=4.75x    frame= 2536 fps=116 q=32.0 size=    4618kB time=00:01:45.96 bitrate= 357.0kbits/s dup=1 drop=0 speed=4.85x    frame= 2642 fps=118 q=32.0 size=    4720kB time=00:01:50.35 bitrate= 350.3kbits/s dup=1 drop=0 speed=4.94x    frame= 2719 fps=119 q=32.0 size=    4815kB time=00:01:53.55 bitrate= 347.3kbits/s dup=1 drop=0 speed=4.97x    frame= 2776 fps=119 q=32.0 size=    4918kB time=00:01:55.94 bitrate= 347.5kbits/s dup=1 drop=0 speed=4.97x    frame= 2916 fps=122 q=32.0 size=    5007kB time=00:02:01.79 bitrate= 336.8kbits/s dup=1 drop=0 speed=5.11x    frame= 2990 fps=123 q=32.0 size=    5136kB time=00:02:04.86 bitrate= 337.0kbits/s dup=1 drop=0 speed=5.12x    frame= 3038 fps=122 q=32.0 size=    5245kB time=00:02:06.87 bitrate= 338.7kbits/s dup=1 drop=0 speed= 5.1x    frame= 3077 fps=121 q=32.0 size=    5407kB time=00:02:08.49 bitrate= 344.7kbits/s dup=1 drop=0 speed=5.06x    frame= 3147 fps=121 q=32.0 size=    5527kB time=00:02:11.43 bitrate= 344.5kbits/s dup=1 drop=0 speed=5.07x    frame= 3216 fps=121 q=32.0 size=    5618kB time=00:02:14.29 bitrate= 342.7kbits/s dup=1 drop=0 speed=5.07x    frame= 3256 fps=121 q=32.0 size=    5772kB time=00:02:15.95 bitrate= 347.8kbits/s dup=1 drop=0 speed=5.03x    frame= 3297 fps=120 q=32.0 size=    5928kB time=00:02:17.66 bitrate= 352.7kbits/s dup=1 drop=0 speed=   5x    frame= 3355 fps=120 q=32.0 size=    6028kB time=00:02:20.09 bitrate= 352.5kbits/s dup=1 drop=0 speed=   5x    frame= 3423 fps=120 q=32.0 size=    6130kB time=00:02:22.91 bitrate= 351.4kbits/s dup=1 drop=0 speed=5.01x    frame= 3492 fps=120 q=32.0 size=    6255kB time=00:02:25.81 bitrate= 351.4kbits/s dup=1 drop=0 speed=5.02x    frame= 3554 fps=120 q=32.0 size=    6338kB time=00:02:28.37 bitrate= 349.9kbits/s dup=1 drop=0 speed=5.02x    frame= 3617 fps=120 q=32.0 size=    6468kB time=00:02:31.01 bitrate= 350.9kbits/s dup=1 drop=0 speed=5.03x    frame= 3698 fps=121 q=32.0 size=    6567kB time=00:02:34.39 bitrate= 348.5kbits/s dup=1 drop=0 speed=5.06x    frame= 3785 fps=122 q=32.0 size=    6674kB time=00:02:38.01 bitrate= 346.0kbits/s dup=1 drop=0 speed=5.09x    frame= 3860 fps=122 q=32.0 size=    6766kB time=00:02:41.17 bitrate= 343.9kbits/s dup=1 drop=0 speed=5.11x    frame= 3912 fps=122 q=32.0 size=    6871kB time=00:02:43.30 bitrate= 344.7kbits/s dup=1 drop=0 speed= 5.1x    frame= 3956 fps=121 q=32.0 size=    6986kB time=00:02:45.18 bitrate= 346.5kbits/s dup=1 drop=0 speed=5.07x    frame= 4020 fps=121 q=32.0 size=    7108kB time=00:02:47.83 bitrate= 347.0kbits/s dup=1 drop=0 speed=5.07x    frame= 4065 fps=121 q=32.0 size=    7229kB time=00:02:49.70 bitrate= 349.0kbits/s dup=1 drop=0 speed=5.05x    frame= 4125 fps=121 q=32.0 size=    7310kB time=00:02:52.18 bitrate= 347.8kbits/s dup=1 drop=0 speed=5.05x    frame= 4164 fps=120 q=32.0 size=    7401kB time=00:02:53.84 bitrate= 348.8kbits/s dup=1 drop=0 speed=5.02x    frame= 4224 fps=120 q=32.0 size=    7469kB time=00:02:56.32 bitrate= 347.0kbits/s dup=1 drop=0 speed=5.02x    frame= 4272 fps=120 q=32.0 size=    7531kB time=00:02:58.32 bitrate= 346.0kbits/s dup=1 drop=0 speed=5.01x    frame= 4305 fps=119 q=32.0 size=    7633kB time=00:02:59.69 bitrate= 348.0kbits/s dup=1 drop=0 speed=4.97x    frame= 4367 fps=119 q=32.0 size=    7745kB time=00:03:02.29 bitrate= 348.1kbits/s dup=1 drop=0 speed=4.97x    frame= 4434 fps=119 q=32.0 size=    7880kB time=00:03:05.06 bitrate= 348.8kbits/s dup=1 drop=0 speed=4.98x    frame= 4481 fps=119 q=32.0 size=    7953kB time=00:03:07.07 bitrate= 348.3kbits/s dup=1 drop=0 speed=4.97x    frame= 4542 fps=119 q=32.0 size=    8067kB time=00:03:09.59 bitrate= 348.6kbits/s dup=1 drop=0 speed=4.97x    frame= 4635 fps=120 q=32.0 size=    8163kB time=00:03:13.47 bitrate= 345.6kbits/s dup=1 drop=0 speed=   5x    frame= 4691 fps=120 q=32.0 size=    8265kB time=00:03:15.81 bitrate= 345.7kbits/s dup=1 drop=0 speed=   5x    frame= 4768 fps=120 q=32.0 size=    8365kB time=00:03:19.01 bitrate= 344.3kbits/s dup=1 drop=0 speed=5.01x    frame= 4840 fps=120 q=32.0 size=    8493kB time=00:03:22.04 bitrate= 344.3kbits/s dup=1 drop=0 speed=5.02x    frame= 4950 fps=121 q=32.0 size=    8591kB time=00:03:26.61 bitrate= 340.6kbits/s dup=1 drop=0 speed=5.07x    frame= 5056 fps=123 q=32.0 size=    8686kB time=00:03:31.00 bitrate= 337.2kbits/s dup=1 drop=0 speed=5.11x    frame= 5114 fps=122 q=32.0 size=    8791kB time=00:03:33.44 bitrate= 337.4kbits/s dup=1 drop=0 speed=5.11x    frame= 5167 fps=122 q=32.0 size=    8880kB time=00:03:35.65 bitrate= 337.3kbits/s dup=1 drop=0 speed= 5.1x    frame= 5254 fps=123 q=32.0 size=    9008kB time=00:03:39.28 bitrate= 336.5kbits/s dup=1 drop=0 speed=5.13x    frame= 5327 fps=123 q=32.0 size=    9133kB time=00:03:42.31 bitrate= 336.5kbits/s dup=1 drop=0 speed=5.14x    frame= 5412 fps=124 q=32.0 size=    9220kB time=00:03:45.89 bitrate= 334.3kbits/s dup=1 drop=0 speed=5.16x    frame= 5504 fps=124 q=32.0 size=    9335kB time=00:03:49.73 bitrate= 332.9kbits/s dup=1 drop=0 speed=5.19x    frame= 5586 fps=125 q=32.0 size=    9415kB time=00:03:53.15 bitrate= 330.8kbits/s dup=1 drop=0 speed=5.21x    frame= 5679 fps=125 q=32.0 size=    9533kB time=00:03:57.03 bitrate= 329.5kbits/s dup=1 drop=0 speed=5.23x    frame= 5774 fps=126 q=32.0 size=    9641kB time=00:04:01.00 bitrate= 327.7kbits/s dup=1 drop=0 speed=5.26x    frame= 5863 fps=127 q=32.0 size=    9705kB time=00:04:04.71 bitrate= 324.9kbits/s dup=1 drop=0 speed=5.28x    frame= 5930 fps=127 q=32.0 size=    9861kB time=00:04:07.48 bitrate= 326.4kbits/s dup=1 drop=0 speed=5.29x    frame= 6006 fps=127 q=32.0 size=    9976kB time=00:04:10.64 bitrate= 326.1kbits/s dup=1 drop=0 speed= 5.3x    frame= 6091 fps=127 q=32.0 size=   10079kB time=00:04:14.18 bitrate= 324.8kbits/s dup=1 drop=0 speed=5.31x    frame= 6181 fps=128 q=32.0 size=   10220kB time=00:04:17.94 bitrate= 324.6kbits/s dup=1 drop=0 speed=5.34x    frame= 6264 fps=128 q=32.0 size=   10312kB time=00:04:21.44 bitrate= 323.1kbits/s dup=1 drop=0 speed=5.35x    frame= 6342 fps=129 q=32.0 size=   10387kB time=00:04:24.68 bitrate= 321.5kbits/s dup=1 drop=0 speed=5.36x    frame= 6404 fps=128 q=32.0 size=   10461kB time=00:04:27.24 bitrate= 320.7kbits/s dup=1 drop=0 speed=5.36x    frame= 6476 fps=129 q=32.0 size=   10568kB time=00:04:30.27 bitrate= 320.3kbits/s dup=1 drop=0 speed=5.37x    frame= 6544 fps=129 q=32.0 size=   10671kB time=00:04:33.08 bitrate= 320.1kbits/s dup=1 drop=0 speed=5.37x    frame= 6633 fps=129 q=32.0 size=   10774kB time=00:04:36.80 bitrate= 318.9kbits/s dup=1 drop=0 speed=5.39x    frame= 6730 fps=130 q=32.0 size=   10901kB time=00:04:40.85 bitrate= 318.0kbits/s dup=1 drop=0 speed=5.42x    frame= 6824 fps=130 q=32.0 size=   10987kB time=00:04:44.77 bitrate= 316.0kbits/s dup=1 drop=0 speed=5.44x    frame= 6910 fps=131 q=32.0 size=   11100kB time=00:04:48.36 bitrate= 315.3kbits/s dup=1 drop=0 speed=5.45x    frame= 6974 fps=131 q=32.0 size=   11203kB time=00:04:51.00 bitrate= 315.4kbits/s dup=1 drop=0 speed=5.45x    frame= 7077 fps=131 q=32.0 size=   11286kB time=00:04:55.31 bitrate= 313.1kbits/s dup=1 drop=0 speed=5.48x    frame= 7153 fps=131 q=32.0 size=   11400kB time=00:04:58.47 bitrate= 312.9kbits/s dup=1 drop=0 speed=5.49x    frame= 7247 fps=132 q=32.0 size=   11477kB time=00:05:02.44 bitrate= 310.9kbits/s dup=1 drop=0 speed=5.51x    frame= 7331 fps=132 q=32.0 size=   11576kB time=00:05:05.94 bitrate= 310.0kbits/s dup=1 drop=0 speed=5.52x    frame= 7395 fps=132 q=32.0 size=   11710kB time=00:05:08.58 bitrate= 310.9kbits/s dup=1 drop=0 speed=5.52x    frame= 7473 fps=132 q=32.0 size=   11798kB time=00:05:11.87 bitrate= 309.9kbits/s dup=1 drop=0 speed=5.53x    frame= 7541 fps=133 q=32.0 size=   11880kB time=00:05:14.68 bitrate= 309.3kbits/s dup=1 drop=0 speed=5.53x    frame= 7579 fps=132 q=32.0 size=   11949kB time=00:05:16.26 bitrate= 309.5kbits/s dup=1 drop=0 speed=5.51x    frame= 7622 fps=132 q=32.0 size=   12040kB time=00:05:18.05 bitrate= 310.1kbits/s dup=1 drop=0 speed=5.49x    frame= 7664 fps=131 q=32.0 size=   12110kB time=00:05:19.80 bitrate= 310.2kbits/s dup=1 drop=0 speed=5.47x    frame= 7721 fps=131 q=32.0 size=   12195kB time=00:05:22.19 bitrate= 310.1kbits/s dup=1 drop=0 speed=5.47x    frame= 7786 fps=131 q=32.0 size=   12277kB time=00:05:24.92 bitrate= 309.5kbits/s dup=1 drop=0 speed=5.47x    frame= 7835 fps=131 q=32.0 size=   12381kB time=00:05:26.93 bitrate= 310.2kbits/s dup=1 drop=0 speed=5.45x    frame= 7910 fps=131 q=32.0 size=   12492kB time=00:05:30.09 bitrate= 310.0kbits/s dup=1 drop=0 speed=5.46x    frame= 7986 fps=131 q=32.0 size=   12617kB time=00:05:33.24 bitrate= 310.1kbits/s dup=1 drop=0 speed=5.46x    frame= 8092 fps=132 q=32.0 size=   12707kB time=00:05:37.64 bitrate= 308.3kbits/s dup=1 drop=0 speed=5.49x    frame= 8176 fps=132 q=32.0 size=   12790kB time=00:05:41.14 bitrate= 307.1kbits/s dup=1 drop=0 speed= 5.5x    frame= 8249 fps=132 q=32.0 size=   12896kB time=00:05:44.17 bitrate= 306.9kbits/s dup=1 drop=0 speed=5.51x    frame= 8348 fps=133 q=32.0 size=   12970kB time=00:05:48.35 bitrate= 305.0kbits/s dup=1 drop=0 speed=5.53x    frame= 8449 fps=133 q=32.0 size=   13047kB time=00:05:52.57 bitrate= 303.1kbits/s dup=1 drop=0 speed=5.55x    frame= 8549 fps=134 q=32.0 size=   13142kB time=00:05:56.71 bitrate= 301.8kbits/s dup=1 drop=0 speed=5.57x    frame= 8661 fps=134 q=32.0 size=   13215kB time=00:06:01.40 bitrate= 299.5kbits/s dup=1 drop=0 speed= 5.6x    frame= 8742 fps=134 q=32.0 size=   13330kB time=00:06:04.77 bitrate= 299.4kbits/s dup=1 drop=0 speed=5.61x    frame= 8791 fps=134 q=32.0 size=   13432kB time=00:06:06.82 bitrate= 300.0kbits/s dup=1 drop=0 speed= 5.6x    frame= 8865 fps=134 q=32.0 size=   13524kB time=00:06:09.89 bitrate= 299.5kbits/s dup=1 drop=0 speed= 5.6x    frame= 8940 fps=134 q=32.0 size=   13619kB time=00:06:13.01 bitrate= 299.1kbits/s dup=1 drop=0 speed=5.61x    frame= 9062 fps=135 q=32.0 size=   13703kB time=00:06:18.13 bitrate= 296.9kbits/s dup=1 drop=0 speed=5.64x    frame= 9117 fps=135 q=32.0 size=   13812kB time=00:06:20.43 bitrate= 297.4kbits/s dup=1 drop=0 speed=5.63x    frame= 9196 fps=135 q=32.0 size=   13922kB time=00:06:23.72 bitrate= 297.2kbits/s dup=1 drop=0 speed=5.64x    frame= 9259 fps=135 q=32.0 size=   14019kB time=00:06:26.32 bitrate= 297.3kbits/s dup=1 drop=0 speed=5.63x    frame= 9343 fps=135 q=32.0 size=   14128kB time=00:06:29.82 bitrate= 296.9kbits/s dup=1 drop=0 speed=5.64x    frame= 9421 fps=135 q=32.0 size=   14214kB time=00:06:33.11 bitrate= 296.2kbits/s dup=1 drop=0 speed=5.65x    frame= 9488 fps=135 q=32.0 size=   14302kB time=00:06:35.88 bitrate= 295.9kbits/s dup=1 drop=0 speed=5.65x    frame= 9576 fps=136 q=32.0 size=   14438kB time=00:06:39.55 bitrate= 296.0kbits/s dup=1 drop=0 speed=5.66x    frame= 9673 fps=136 q=32.0 size=   14548kB time=00:06:43.60 bitrate= 295.3kbits/s dup=1 drop=0 speed=5.68x    frame= 9783 fps=137 q=32.0 size=   14635kB time=00:06:48.17 bitrate= 293.7kbits/s dup=1 drop=0 speed= 5.7x    frame= 9858 fps=137 q=32.0 size=   14713kB time=00:06:51.32 bitrate= 293.0kbits/s dup=1 drop=0 speed= 5.7x    frame= 9973 fps=137 q=32.0 size=   14811kB time=00:06:56.10 bitrate= 291.6kbits/s dup=1 drop=0 speed=5.73x    frame=10050 fps=137 q=32.0 size=   14933kB time=00:06:59.30 bitrate= 291.7kbits/s dup=1 drop=0 speed=5.73x    frame=10129 fps=138 q=32.0 size=   15035kB time=00:07:02.63 bitrate= 291.4kbits/s dup=1 drop=0 speed=5.74x    frame=10191 fps=137 q=32.0 size=   15193kB time=00:07:05.19 bitrate= 292.7kbits/s dup=1 drop=0 speed=5.73x    frame=10297 fps=138 q=32.0 size=   15304kB time=00:07:09.63 bitrate= 291.8kbits/s dup=1 drop=0 speed=5.76x    frame=10385 fps=138 q=32.0 size=   15392kB time=00:07:13.30 bitrate= 291.0kbits/s dup=1 drop=0 speed=5.77x    frame=10490 fps=139 q=32.0 size=   15497kB time=00:07:17.69 bitrate= 290.0kbits/s dup=1 drop=0 speed=5.79x    frame=10596 fps=139 q=32.0 size=   15601kB time=00:07:22.09 bitrate= 289.1kbits/s dup=1 drop=0 speed=5.81x    frame=10681 fps=139 q=32.0 size=   15700kB time=00:07:25.63 bitrate= 288.6kbits/s dup=1 drop=0 speed=5.81x    frame=10756 fps=139 q=32.0 size=   15788kB time=00:07:28.79 bitrate= 288.2kbits/s dup=1 drop=0 speed=5.82x    frame=10847 fps=140 q=32.0 size=   15882kB time=00:07:32.58 bitrate= 287.5kbits/s dup=1 drop=0 speed=5.83x    frame=10955 fps=140 q=32.0 size=   15944kB time=00:07:37.06 bitrate= 285.8kbits/s dup=1 drop=0 speed=5.85x    frame=11056 fps=141 q=32.0 size=   16046kB time=00:07:41.29 bitrate= 285.0kbits/s dup=1 drop=0 speed=5.86x    frame=11154 fps=141 q=32.0 size=   16124kB time=00:07:45.38 bitrate= 283.8kbits/s dup=1 drop=0 speed=5.88x    frame=11255 fps=141 q=32.0 size=   16221kB time=00:07:49.56 bitrate= 283.0kbits/s dup=1 drop=0 speed=5.89x    frame=11334 fps=141 q=32.0 size=   16284kB time=00:07:52.85 bitrate= 282.1kbits/s dup=1 drop=0 speed= 5.9x    frame=11396 fps=141 q=32.0 size=   16367kB time=00:07:55.45 bitrate= 282.0kbits/s dup=1 drop=0 speed=5.89x    frame=11468 fps=141 q=32.0 size=   16487kB time=00:07:58.44 bitrate= 282.3kbits/s dup=1 drop=0 speed=5.89x    frame=11518 fps=141 q=32.0 size=   16586kB time=00:08:00.53 bitrate= 282.7kbits/s dup=1 drop=0 speed=5.88x    frame=11564 fps=141 q=32.0 size=   16660kB time=00:08:02.45 bitrate= 282.9kbits/s dup=1 drop=0 speed=5.87x    frame=11625 fps=141 q=32.0 size=   16727kB time=00:08:05.01 bitrate= 282.5kbits/s dup=1 drop=0 speed=5.86x    frame=11678 fps=140 q=32.0 size=   16818kB time=00:08:07.23 bitrate= 282.8kbits/s dup=1 drop=0 speed=5.85x    frame=11753 fps=140 q=32.0 size=   16920kB time=00:08:10.34 bitrate= 282.7kbits/s dup=1 drop=0 speed=5.85x    frame=11822 fps=140 q=32.0 size=   17017kB time=00:08:13.20 bitrate= 282.6kbits/s dup=1 drop=0 speed=5.85x    frame=11914 fps=140 q=32.0 size=   17122kB time=00:08:17.04 bitrate= 282.2kbits/s dup=1 drop=0 speed=5.86x    frame=12007 fps=141 q=32.0 size=   17182kB time=00:08:20.97 bitrate= 281.0kbits/s dup=1 drop=0 speed=5.87x    frame=12086 fps=141 q=32.0 size=   17291kB time=00:08:24.21 bitrate= 280.9kbits/s dup=1 drop=0 speed=5.87x    frame=12163 fps=141 q=32.0 size=   17349kB time=00:08:27.45 bitrate= 280.1kbits/s dup=1 drop=0 speed=5.88x    frame=12242 fps=141 q=32.0 size=   17416kB time=00:08:30.74 bitrate= 279.3kbits/s dup=1 drop=0 speed=5.88x    frame=12325 fps=141 q=32.0 size=   17496kB time=00:08:34.24 bitrate= 278.7kbits/s dup=1 drop=0 speed=5.89x    frame=12386 fps=141 q=32.0 size=   17573kB time=00:08:36.75 bitrate= 278.6kbits/s dup=1 drop=0 speed=5.88x    frame=12470 fps=141 q=32.0 size=   17671kB time=00:08:40.25 bitrate= 278.2kbits/s dup=1 drop=0 speed=5.89x    frame=12554 fps=141 q=32.0 size=   17744kB time=00:08:43.75 bitrate= 277.5kbits/s dup=1 drop=0 speed=5.89x    frame=12636 fps=141 q=32.0 size=   17880kB time=00:08:47.16 bitrate= 277.8kbits/s dup=1 drop=0 speed= 5.9x    frame=12715 fps=141 q=32.0 size=   17956kB time=00:08:50.45 bitrate= 277.3kbits/s dup=1 drop=0 speed= 5.9x    frame=12809 fps=142 q=32.0 size=   18046kB time=00:08:54.42 bitrate= 276.6kbits/s dup=1 drop=0 speed=5.91x    frame=12896 fps=142 q=32.0 size=   18154kB time=00:08:58.04 bitrate= 276.4kbits/s dup=1 drop=0 speed=5.92x    frame=12976 fps=142 q=32.0 size=   18246kB time=00:09:01.37 bitrate= 276.1kbits/s dup=1 drop=0 speed=5.92x    frame=13054 fps=142 q=32.0 size=   18358kB time=00:09:04.61 bitrate= 276.1kbits/s dup=1 drop=0 speed=5.93x    frame=13145 fps=142 q=32.0 size=   18456kB time=00:09:08.41 bitrate= 275.7kbits/s dup=1 drop=0 speed=5.93x    frame=13245 fps=143 q=32.0 size=   18519kB time=00:09:12.55 bitrate= 274.6kbits/s dup=1 drop=0 speed=5.95x    frame=13327 fps=143 q=32.0 size=   18620kB time=00:09:16.01 bitrate= 274.3kbits/s dup=1 drop=0 speed=5.95x    frame=13398 fps=143 q=32.0 size=   18706kB time=00:09:18.95 bitrate= 274.1kbits/s dup=1 drop=0 speed=5.95x    frame=13494 fps=143 q=32.0 size=   18808kB time=00:09:23.00 bitrate= 273.7kbits/s dup=1 drop=0 speed=5.96x    frame=13578 fps=143 q=32.0 size=   18920kB time=00:09:26.46 bitrate= 273.6kbits/s dup=1 drop=0 speed=5.97x    frame=13662 fps=143 q=32.0 size=   19003kB time=00:09:29.96 bitrate= 273.1kbits/s dup=1 drop=0 speed=5.97x    frame=13737 fps=143 q=32.0 size=   19089kB time=00:09:33.07 bitrate= 272.9kbits/s dup=1 drop=0 speed=5.97x    frame=13788 fps=143 q=32.0 size=   19149kB time=00:09:35.21 bitrate= 272.7kbits/s dup=1 drop=0 speed=5.96x    frame=13849 fps=143 q=32.0 size=   19256kB time=00:09:37.77 bitrate= 273.0kbits/s dup=1 drop=0 speed=5.96x    frame=13936 fps=143 q=32.0 size=   19343kB time=00:09:41.39 bitrate= 272.5kbits/s dup=1 drop=0 speed=5.96x    frame=14015 fps=143 q=32.0 size=   19402kB time=00:09:44.68 bitrate= 271.8kbits/s dup=1 drop=0 speed=5.97x    frame=14073 fps=143 q=32.0 size=   19517kB time=00:09:47.11 bitrate= 272.3kbits/s dup=1 drop=0 speed=5.96x    frame=14127 fps=143 q=32.0 size=   19600kB time=00:09:49.37 bitrate= 272.4kbits/s dup=1 drop=0 speed=5.95x    frame=14178 fps=142 q=32.0 size=   19664kB time=00:09:51.51 bitrate= 272.3kbits/s dup=1 drop=0 speed=5.94x    frame=14223 fps=142 q=32.0 size=   19719kB time=00:09:53.38 bitrate= 272.2kbits/s dup=1 drop=0 speed=5.93x    frame=14270 fps=142 q=32.0 size=   19806kB time=00:09:55.35 bitrate= 272.5kbits/s dup=1 drop=0 speed=5.92x    frame=14346 fps=142 q=32.0 size=   19917kB time=00:09:58.50 bitrate= 272.6kbits/s dup=1 drop=0 speed=5.92x    frame=14436 fps=142 q=32.0 size=   19976kB time=00:10:02.26 bitrate= 271.7kbits/s dup=1 drop=0 speed=5.93x    frame=14510 fps=142 q=32.0 size=   20077kB time=00:10:05.33 bitrate= 271.7kbits/s dup=1 drop=0 speed=5.93x    frame=14582 fps=142 q=32.0 size=   20154kB time=00:10:08.36 bitrate= 271.4kbits/s dup=1 drop=0 speed=5.93x    frame=14660 fps=142 q=32.0 size=   20288kB time=00:10:11.60 bitrate= 271.7kbits/s dup=1 drop=0 speed=5.93x    frame=14750 fps=142 q=32.0 size=   20368kB time=00:10:15.36 bitrate= 271.2kbits/s dup=1 drop=0 speed=5.94x    frame=14842 fps=143 q=32.0 size=   20439kB time=00:10:19.20 bitrate= 270.4kbits/s dup=1 drop=0 speed=5.95x    frame=14927 fps=143 q=32.0 size=   20560kB time=00:10:22.74 bitrate= 270.5kbits/s dup=1 drop=0 speed=5.95x    frame=15030 fps=143 q=32.0 size=   20663kB time=00:10:27.00 bitrate= 270.0kbits/s dup=1 drop=0 speed=5.97x    frame=15132 fps=143 q=32.0 size=   20775kB time=00:10:31.27 bitrate= 269.6kbits/s dup=1 drop=0 speed=5.98x    frame=15230 fps=144 q=32.0 size=   20841kB time=00:10:35.37 bitrate= 268.7kbits/s dup=1 drop=0 speed=5.99x    frame=15303 fps=144 q=32.0 size=   20929kB time=00:10:38.44 bitrate= 268.5kbits/s dup=1 drop=0 speed=5.99x    frame=15367 fps=143 q=32.0 size=   20992kB time=00:10:41.08 bitrate= 268.2kbits/s dup=1 drop=0 speed=5.99x    frame=15432 fps=143 q=32.0 size=   21054kB time=00:10:43.81 bitrate= 267.9kbits/s dup=1 drop=0 speed=5.98x    frame=15501 fps=143 q=32.0 size=   21146kB time=00:10:46.67 bitrate= 267.9kbits/s dup=1 drop=0 speed=5.98x    frame=15585 fps=143 q=32.0 size=   21223kB time=00:10:50.17 bitrate= 267.4kbits/s dup=1 drop=0 speed=5.99x    frame=15679 fps=144 q=32.0 size=   21306kB time=00:10:54.10 bitrate= 266.8kbits/s dup=1 drop=0 speed=5.99x    frame=15763 fps=144 q=32.0 size=   21410kB time=00:10:57.55 bitrate= 266.7kbits/s dup=1 drop=0 speed=   6x    frame=15828 fps=144 q=32.0 size=   21480kB time=00:11:00.28 bitrate= 266.5kbits/s dup=1 drop=0 speed=   6x    frame=15884 fps=144 q=32.0 size=   21541kB time=00:11:02.67 bitrate= 266.3kbits/s dup=1 drop=0 speed=5.99x    frame=15928 fps=143 q=32.0 size=   21646kB time=00:11:04.47 bitrate= 266.9kbits/s dup=1 drop=0 speed=5.98x    frame=15996 fps=143 q=29.0 size=   21712kB time=00:11:07.32 bitrate= 266.5kbits/s dup=1 drop=0 speed=5.98x    frame=16064 fps=143 q=32.0 size=   21800kB time=00:11:10.14 bitrate= 266.5kbits/s dup=1 drop=0 speed=5.98x    frame=16156 fps=143 q=32.0 size=   21906kB time=00:11:13.98 bitrate= 266.3kbits/s dup=1 drop=0 speed=5.98x    frame=16250 fps=144 q=32.0 size=   22007kB time=00:11:17.91 bitrate= 265.9kbits/s dup=1 drop=0 speed=5.99x    frame=16320 fps=144 q=32.0 size=   22095kB time=00:11:20.81 bitrate= 265.9kbits/s dup=1 drop=0 speed=5.99x    frame=16393 fps=144 q=32.0 size=   22219kB time=00:11:23.88 bitrate= 266.2kbits/s dup=1 drop=0 speed=5.99x    frame=16485 fps=144 q=32.0 size=   22298kB time=00:11:27.72 bitrate= 265.6kbits/s dup=1 drop=0 speed=   6x    frame=16571 fps=144 q=29.0 size=   22377kB time=00:11:31.30 bitrate= 265.2kbits/s dup=1 drop=0 speed=   6x    frame=16646 fps=144 q=32.0 size=   22519kB time=00:11:34.42 bitrate= 265.7kbits/s dup=1 drop=0 speed=   6x    frame=16760 fps=144 q=32.0 size=   22620kB time=00:11:39.20 bitrate= 265.0kbits/s dup=1 drop=0 speed=6.02x    frame=16856 fps=144 q=32.0 size=   22693kB time=00:11:43.21 bitrate= 264.4kbits/s dup=1 drop=0 speed=6.03x    frame=16950 fps=145 q=32.0 size=   22789kB time=00:11:47.09 bitrate= 264.0kbits/s dup=1 drop=0 speed=6.03x    frame=17056 fps=145 q=32.0 size=   22850kB time=00:11:51.53 bitrate= 263.1kbits/s dup=1 drop=0 speed=6.05x    frame=17130 fps=145 q=32.0 size=   22937kB time=00:11:54.60 bitrate= 262.9kbits/s dup=1 drop=0 speed=6.05x    frame=17223 fps=145 q=32.0 size=   23023kB time=00:11:58.52 bitrate= 262.5kbits/s dup=1 drop=0 speed=6.05x    frame=17281 fps=145 q=32.0 size=   23117kB time=00:12:00.91 bitrate= 262.7kbits/s dup=1 drop=0 speed=6.05x    frame=17327 fps=145 q=32.0 size=   23188kB time=00:12:02.83 bitrate= 262.8kbits/s dup=1 drop=0 speed=6.04x    frame=17389 fps=145 q=32.0 size=   23278kB time=00:12:05.44 bitrate= 262.9kbits/s dup=1 drop=0 speed=6.04x    frame=17500 fps=145 q=32.0 size=   23382kB time=00:12:10.04 bitrate= 262.4kbits/s dup=1 drop=0 speed=6.05x    frame=17609 fps=145 q=32.0 size=   23486kB time=00:12:14.57 bitrate= 261.9kbits/s dup=1 drop=0 speed=6.06x    frame=17694 fps=145 q=32.0 size=   23570kB time=00:12:18.15 bitrate= 261.6kbits/s dup=1 drop=0 speed=6.06x    frame=17776 fps=145 q=32.0 size=   23676kB time=00:12:21.56 bitrate= 261.5kbits/s dup=1 drop=0 speed=6.07x    frame=17839 fps=145 q=32.0 size=   23777kB time=00:12:24.17 bitrate= 261.7kbits/s dup=1 drop=0 speed=6.06x    frame=17913 fps=145 q=32.0 size=   23896kB time=00:12:27.28 bitrate= 262.0kbits/s dup=1 drop=0 speed=6.06x    frame=17998 fps=145 q=32.0 size=   24001kB time=00:12:30.82 bitrate= 261.9kbits/s dup=1 drop=0 speed=6.06x    frame=18072 fps=145 q=32.0 size=   24139kB time=00:12:33.89 bitrate= 262.3kbits/s dup=1 drop=0 speed=6.06x    frame=18139 fps=145 q=32.0 size=   24255kB time=00:12:36.71 bitrate= 262.6kbits/s dup=1 drop=0 speed=6.06x    frame=18207 fps=145 q=32.0 size=   24375kB time=00:12:39.53 bitrate= 262.9kbits/s dup=1 drop=0 speed=6.06x    frame=18298 fps=145 q=32.0 size=   24449kB time=00:12:43.32 bitrate= 262.4kbits/s dup=1 drop=0 speed=6.06x    frame=18372 fps=145 q=32.0 size=   24542kB time=00:12:46.40 bitrate= 262.3kbits/s dup=1 drop=0 speed=6.06x    frame=18443 fps=145 q=32.0 size=   24641kB time=00:12:49.38 bitrate= 262.4kbits/s dup=1 drop=0 speed=6.06x    frame=18487 fps=145 q=32.0 size=   24713kB time=00:12:51.22 bitrate= 262.5kbits/s dup=1 drop=0 speed=6.05x    frame=18541 fps=145 q=32.0 size=   24779kB time=00:12:53.48 bitrate= 262.4kbits/s dup=1 drop=0 speed=6.05x    frame=18635 fps=145 q=32.0 size=   24875kB time=00:12:57.36 bitrate= 262.1kbits/s dup=1 drop=0 speed=6.05x    frame=18698 fps=145 q=32.0 size=   25020kB time=00:13:00.01 bitrate= 262.8kbits/s dup=1 drop=0 speed=6.05x    frame=18760 fps=145 q=32.0 size=   25141kB time=00:13:02.61 bitrate= 263.2kbits/s dup=1 drop=0 speed=6.05x    frame=18827 fps=145 q=32.0 size=   25221kB time=00:13:05.38 bitrate= 263.1kbits/s dup=1 drop=0 speed=6.04x    frame=18923 fps=145 q=32.0 size=   25347kB time=00:13:09.39 bitrate= 263.0kbits/s dup=1 drop=0 speed=6.05x    frame=18983 fps=145 q=32.0 size=   25433kB time=00:13:11.91 bitrate= 263.1kbits/s dup=1 drop=0 speed=6.05x    frame=19050 fps=145 q=32.0 size=   25515kB time=00:13:14.73 bitrate= 263.0kbits/s dup=1 drop=0 speed=6.05x    frame=19133 fps=145 q=32.0 size=   25650kB time=00:13:18.18 bitrate= 263.2kbits/s dup=1 drop=0 speed=6.05x    frame=19207 fps=145 q=32.0 size=   25703kB time=00:13:21.25 bitrate= 262.8kbits/s dup=1 drop=0 speed=6.05x    frame=19289 fps=145 q=32.0 size=   25795kB time=00:13:24.67 bitrate= 262.6kbits/s dup=1 drop=0 speed=6.05x    frame=19346 fps=145 q=32.0 size=   25923kB time=00:13:27.06 bitrate= 263.1kbits/s dup=1 drop=0 speed=6.04x    frame=19404 fps=145 q=32.0 size=   26045kB time=00:13:29.45 bitrate= 263.6kbits/s dup=1 drop=0 speed=6.04x    frame=19481 fps=145 q=32.0 size=   26157kB time=00:13:32.69 bitrate= 263.7kbits/s dup=1 drop=0 speed=6.04x    frame=19549 fps=145 q=32.0 size=   26313kB time=00:13:35.51 bitrate= 264.3kbits/s dup=1 drop=0 speed=6.04x    frame=19642 fps=145 q=32.0 size=   26384kB time=00:13:39.39 bitrate= 263.8kbits/s dup=1 drop=0 speed=6.04x    frame=19708 fps=145 q=32.0 size=   26502kB time=00:13:42.12 bitrate= 264.1kbits/s dup=1 drop=0 speed=6.04x    frame=19779 fps=145 q=32.0 size=   26659kB time=00:13:45.11 bitrate= 264.7kbits/s dup=1 drop=0 speed=6.04x    frame=19880 fps=145 q=32.0 size=   26739kB time=00:13:49.33 bitrate= 264.1kbits/s dup=1 drop=0 speed=6.04x    frame=19976 fps=145 q=32.0 size=   26857kB time=00:13:53.34 bitrate= 264.0kbits/s dup=1 drop=0 speed=6.05x    frame=20060 fps=145 q=32.0 size=   26993kB time=00:13:56.84 bitrate= 264.2kbits/s dup=1 drop=0 speed=6.05x    frame=20137 fps=145 q=32.0 size=   27108kB time=00:14:00.04 bitrate= 264.4kbits/s dup=1 drop=0 speed=6.06x    frame=20208 fps=145 q=32.0 size=   27249kB time=00:14:02.98 bitrate= 264.8kbits/s dup=1 drop=0 speed=6.05x    frame=20290 fps=145 q=32.0 size=   27341kB time=00:14:06.44 bitrate= 264.6kbits/s dup=1 drop=0 speed=6.06x    frame=20347 fps=145 q=32.0 size=   27451kB time=00:14:08.79 bitrate= 264.9kbits/s dup=1 drop=0 speed=6.05x    frame=20423 fps=145 q=32.0 size=   27559kB time=00:14:11.99 bitrate= 265.0kbits/s dup=1 drop=0 speed=6.05x    frame=20506 fps=145 q=32.0 size=   27679kB time=00:14:15.44 bitrate= 265.1kbits/s dup=1 drop=0 speed=6.05x    frame=20601 fps=145 q=32.0 size=   27754kB time=00:14:19.37 bitrate= 264.6kbits/s dup=1 drop=0 speed=6.06x    frame=20671 fps=145 q=32.0 size=   27844kB time=00:14:22.31 bitrate= 264.5kbits/s dup=1 drop=0 speed=6.06x    frame=20771 fps=145 q=32.0 size=   27941kB time=00:14:26.45 bitrate= 264.2kbits/s dup=1 drop=0 speed=6.07x    frame=20855 fps=145 q=32.0 size=   28029kB time=00:14:29.99 bitrate= 263.9kbits/s dup=1 drop=0 speed=6.07x    frame=20930 fps=146 q=32.0 size=   28108kB time=00:14:33.11 bitrate= 263.7kbits/s dup=1 drop=0 speed=6.07x    frame=21006 fps=145 q=32.0 size=   28207kB time=00:14:36.26 bitrate= 263.7kbits/s dup=1 drop=0 speed=6.07x    frame=21083 fps=146 q=32.0 size=   28359kB time=00:14:39.51 bitrate= 264.1kbits/s dup=1 drop=0 speed=6.07x    frame=21178 fps=146 q=32.0 size=   28428kB time=00:14:43.47 bitrate= 263.6kbits/s dup=1 drop=0 speed=6.08x    frame=21280 fps=146 q=32.0 size=   28490kB time=00:14:47.70 bitrate= 262.9kbits/s dup=1 drop=0 speed=6.08x    frame=21354 fps=146 q=32.0 size=   28616kB time=00:14:50.81 bitrate= 263.2kbits/s dup=1 drop=0 speed=6.08x    frame=21424 fps=146 q=32.0 size=   28699kB time=00:14:53.71 bitrate= 263.1kbits/s dup=1 drop=0 speed=6.08x    frame=21489 fps=146 q=32.0 size=   28780kB time=00:14:56.40 bitrate= 263.0kbits/s dup=1 drop=0 speed=6.08x    frame=21591 fps=146 q=32.0 size=   28889kB time=00:15:00.67 bitrate= 262.8kbits/s dup=1 drop=0 speed=6.09x    frame=21664 fps=146 q=32.0 size=   28971kB time=00:15:03.70 bitrate= 262.6kbits/s dup=1 drop=0 speed=6.09x    frame=21736 fps=146 q=32.0 size=   29072kB time=00:15:06.73 bitrate= 262.7kbits/s dup=1 drop=0 speed=6.09x    frame=21796 fps=146 q=32.0 size=   29148kB time=00:15:09.24 bitrate= 262.6kbits/s dup=1 drop=0 speed=6.09x    frame=21851 fps=146 q=32.0 size=   29238kB time=00:15:11.51 bitrate= 262.8kbits/s dup=1 drop=0 speed=6.08x    frame=21912 fps=146 q=32.0 size=   29317kB time=00:15:14.07 bitrate= 262.7kbits/s dup=1 drop=0 speed=6.08x    frame=22001 fps=146 q=32.0 size=   29420kB time=00:15:17.78 bitrate= 262.6kbits/s dup=1 drop=0 speed=6.08x    frame=22059 fps=146 q=32.0 size=   29524kB time=00:15:20.21 bitrate= 262.8kbits/s dup=1 drop=0 speed=6.08x    frame=22132 fps=146 q=32.0 size=   29606kB time=00:15:23.24 bitrate= 262.7kbits/s dup=1 drop=0 speed=6.08x    frame=22214 fps=146 q=32.0 size=   29710kB time=00:15:26.65 bitrate= 262.6kbits/s dup=1 drop=0 speed=6.08x    frame=22312 fps=146 q=32.0 size=   29779kB time=00:15:30.75 bitrate= 262.1kbits/s dup=1 drop=0 speed=6.09x    frame=22399 fps=146 q=32.0 size=   29894kB time=00:15:34.37 bitrate= 262.1kbits/s dup=1 drop=0 speed=6.09x    frame=22467 fps=146 q=32.0 size=   30002kB time=00:15:37.23 bitrate= 262.2kbits/s dup=1 drop=0 speed=6.09x    frame=22538 fps=146 q=32.0 size=   30135kB time=00:15:40.18 bitrate= 262.6kbits/s dup=1 drop=0 speed=6.09x    frame=22592 fps=146 q=32.0 size=   30262kB time=00:15:42.44 bitrate= 263.0kbits/s dup=1 drop=0 speed=6.08x    frame=22663 fps=146 q=32.0 size=   30397kB time=00:15:45.38 bitrate= 263.4kbits/s dup=1 drop=0 speed=6.08x    frame=22764 fps=146 q=32.0 size=   30499kB time=00:15:49.61 bitrate= 263.1kbits/s dup=1 drop=0 speed=6.09x    frame=22842 fps=146 q=32.0 size=   30584kB time=00:15:52.85 bitrate= 262.9kbits/s dup=1 drop=0 speed=6.09x    frame=22896 fps=146 q=32.0 size=   30673kB time=00:15:55.11 bitrate= 263.1kbits/s dup=1 drop=0 speed=6.08x    frame=22962 fps=146 q=32.0 size=   30767kB time=00:15:57.84 bitrate= 263.1kbits/s dup=1 drop=0 speed=6.08x    frame=23046 fps=146 q=32.0 size=   30872kB time=00:16:01.38 bitrate= 263.1kbits/s dup=1 drop=0 speed=6.08x    frame=23133 fps=146 q=32.0 size=   30966kB time=00:16:04.97 bitrate= 262.9kbits/s dup=1 drop=0 speed=6.09x    frame=23234 fps=146 q=32.0 size=   31036kB time=00:16:09.19 bitrate= 262.3kbits/s dup=1 drop=0 speed= 6.1x    frame=23314 fps=146 q=32.0 size=   31152kB time=00:16:12.56 bitrate= 262.4kbits/s dup=1 drop=0 speed= 6.1x    frame=23361 fps=146 q=32.0 size=   31249kB time=00:16:14.48 bitrate= 262.7kbits/s dup=1 drop=0 speed=6.09x    frame=23461 fps=146 q=32.0 size=   31362kB time=00:16:18.66 bitrate= 262.5kbits/s dup=1 drop=0 speed= 6.1x    frame=23579 fps=146 q=32.0 size=   31488kB time=00:16:23.57 bitrate= 262.3kbits/s dup=1 drop=0 speed=6.11x    frame=23662 fps=146 q=32.0 size=   31574kB time=00:16:27.07 bitrate= 262.0kbits/s dup=1 drop=0 speed=6.11x    frame=23722 fps=146 q=32.0 size=   31687kB time=00:16:29.54 bitrate= 262.3kbits/s dup=1 drop=0 speed=6.11x    frame=23787 fps=146 q=32.0 size=   31785kB time=00:16:32.27 bitrate= 262.4kbits/s dup=1 drop=0 speed= 6.1x    frame=23861 fps=146 q=32.0 size=   31888kB time=00:16:35.35 bitrate= 262.4kbits/s dup=1 drop=0 speed= 6.1x    frame=23946 fps=146 q=32.0 size=   32010kB time=00:16:38.89 bitrate= 262.5kbits/s dup=1 drop=0 speed=6.11x    frame=24018 fps=146 q=32.0 size=   32105kB time=00:16:41.87 bitrate= 262.5kbits/s dup=1 drop=0 speed=6.11x    frame=24070 fps=146 q=32.0 size=   32211kB time=00:16:44.09 bitrate= 262.8kbits/s dup=1 drop=0 speed= 6.1x    frame=24112 fps=146 q=32.0 size=   32313kB time=00:16:45.84 bitrate= 263.2kbits/s dup=1 drop=0 speed=6.09x    frame=24168 fps=146 q=32.0 size=   32414kB time=00:16:48.15 bitrate= 263.4kbits/s dup=1 drop=0 speed=6.09x    frame=24227 fps=146 q=32.0 size=   32518kB time=00:16:50.62 bitrate= 263.6kbits/s dup=1 drop=0 speed=6.08x    frame=24311 fps=146 q=32.0 size=   32613kB time=00:16:54.12 bitrate= 263.4kbits/s dup=1 drop=0 speed=6.09x    frame=24398 fps=146 q=32.0 size=   32696kB time=00:16:57.75 bitrate= 263.2kbits/s dup=1 drop=0 speed=6.09x    frame=24464 fps=146 q=32.0 size=   32800kB time=00:17:00.52 bitrate= 263.3kbits/s dup=1 drop=0 speed=6.09x    frame=24544 fps=146 q=32.0 size=   32900kB time=00:17:03.85 bitrate= 263.2kbits/s dup=1 drop=0 speed=6.09x    frame=24657 fps=146 q=32.0 size=   32981kB time=00:17:08.58 bitrate= 262.7kbits/s dup=1 drop=0 speed= 6.1x    frame=24769 fps=146 q=32.0 size=   33053kB time=00:17:13.23 bitrate= 262.1kbits/s dup=1 drop=0 speed=6.11x    frame=24843 fps=146 q=32.0 size=   33183kB time=00:17:16.31 bitrate= 262.3kbits/s dup=1 drop=0 speed=6.11x    frame=24943 fps=147 q=32.0 size=   33250kB time=00:17:20.49 bitrate= 261.8kbits/s dup=1 drop=0 speed=6.11x    frame=25019 fps=147 q=32.0 size=   33349kB time=00:17:23.64 bitrate= 261.8kbits/s dup=1 drop=0 speed=6.11x    frame=25083 fps=147 q=32.0 size=   33429kB time=00:17:26.33 bitrate= 261.7kbits/s dup=1 drop=0 speed=6.11x    frame=25152 fps=146 q=32.0 size=   33519kB time=00:17:29.19 bitrate= 261.7kbits/s dup=1 drop=0 speed=6.11x    frame=25226 fps=146 q=32.0 size=   33603kB time=00:17:32.31 bitrate= 261.6kbits/s dup=1 drop=0 speed=6.11x    frame=25299 fps=146 q=32.0 size=   33717kB time=00:17:35.33 bitrate= 261.7kbits/s dup=1 drop=0 speed=6.11x    frame=25392 fps=147 q=32.0 size=   33804kB time=00:17:39.22 bitrate= 261.4kbits/s dup=1 drop=0 speed=6.11x    frame=25452 fps=146 q=32.0 size=   33903kB time=00:17:41.69 bitrate= 261.6kbits/s dup=1 drop=0 speed=6.11x    frame=25498 fps=146 q=32.0 size=   33994kB time=00:17:43.61 bitrate= 261.8kbits/s dup=1 drop=0 speed= 6.1x    frame=25549 fps=146 q=32.0 size=   34091kB time=00:17:45.75 bitrate= 262.0kbits/s dup=1 drop=0 speed= 6.1x    frame=25604 fps=146 q=32.0 size=   34199kB time=00:17:48.05 bitrate= 262.3kbits/s dup=1 drop=0 speed=6.09x    frame=25679 fps=146 q=32.0 size=   34315kB time=00:17:51.16 bitrate= 262.4kbits/s dup=1 drop=0 speed=6.09x    frame=25778 fps=146 q=32.0 size=   34440kB time=00:17:55.30 bitrate= 262.4kbits/s dup=1 drop=0 speed= 6.1x    frame=25890 fps=146 q=32.0 size=   34516kB time=00:18:00.00 bitrate= 261.8kbits/s dup=1 drop=0 speed=6.11x    frame=25965 fps=146 q=32.0 size=   34601kB time=00:18:03.11 bitrate= 261.7kbits/s dup=1 drop=0 speed=6.11x    frame=26054 fps=147 q=32.0 size=   34696kB time=00:18:06.82 bitrate= 261.5kbits/s dup=1 drop=0 speed=6.11x    frame=26138 fps=147 q=32.0 size=   34798kB time=00:18:10.32 bitrate= 261.4kbits/s dup=1 drop=0 speed=6.11x    frame=26231 fps=147 q=32.0 size=   34882kB time=00:18:14.20 bitrate= 261.2kbits/s dup=1 drop=0 speed=6.12x    frame=26291 fps=147 q=32.0 size=   34960kB time=00:18:16.68 bitrate= 261.1kbits/s dup=1 drop=0 speed=6.12x    frame=26365 fps=147 q=32.0 size=   35057kB time=00:18:19.79 bitrate= 261.1kbits/s dup=1 drop=0 speed=6.12x    frame=26431 fps=147 q=32.0 size=   35133kB time=00:18:22.57 bitrate= 261.0kbits/s dup=1 drop=0 speed=6.11x    frame=26500 fps=147 q=32.0 size=   35196kB time=00:18:25.43 bitrate= 260.8kbits/s dup=1 drop=0 speed=6.11x    frame=26568 fps=147 q=32.0 size=   35306kB time=00:18:28.28 bitrate= 261.0kbits/s dup=1 drop=0 speed=6.11x    frame=26640 fps=146 q=32.0 size=   35371kB time=00:18:31.27 bitrate= 260.7kbits/s dup=1 drop=0 speed=6.11x    frame=26702 fps=146 q=29.0 size=   35434kB time=00:18:33.87 bitrate= 260.6kbits/s dup=1 drop=0 speed=6.11x    frame=26769 fps=146 q=32.0 size=   35545kB time=00:18:36.65 bitrate= 260.8kbits/s dup=1 drop=0 speed=6.11x    frame=26866 fps=147 q=32.0 size=   35618kB time=00:18:40.70 bitrate= 260.4kbits/s dup=1 drop=0 speed=6.11x    frame=26940 fps=147 q=32.0 size=   35707kB time=00:18:43.77 bitrate= 260.3kbits/s dup=1 drop=0 speed=6.11x    frame=26996 fps=146 q=32.0 size=   35826kB time=00:18:46.12 bitrate= 260.6kbits/s dup=1 drop=0 speed=6.11x    frame=27049 fps=146 q=32.0 size=   35894kB time=00:18:48.34 bitrate= 260.6kbits/s dup=1 drop=0 speed= 6.1x    frame=27116 fps=146 q=32.0 size=   35997kB time=00:18:51.11 bitrate= 260.7kbits/s dup=1 drop=0 speed= 6.1x    frame=27197 fps=146 q=32.0 size=   36060kB time=00:18:54.48 bitrate= 260.4kbits/s dup=1 drop=0 speed= 6.1x    frame=27294 fps=146 q=32.0 size=   36142kB time=00:18:58.53 bitrate= 260.1kbits/s dup=1 drop=0 speed=6.11x    frame=27361 fps=146 q=32.0 size=   36232kB time=00:19:01.35 bitrate= 260.1kbits/s dup=1 drop=0 speed=6.11x    frame=27428 fps=146 q=32.0 size=   36292kB time=00:19:04.12 bitrate= 259.9kbits/s dup=1 drop=0 speed= 6.1x    frame=27495 fps=146 q=32.0 size=   36361kB time=00:19:06.94 bitrate= 259.7kbits/s dup=1 drop=0 speed= 6.1x    frame=27566 fps=146 q=32.0 size=   36443kB time=00:19:09.88 bitrate= 259.6kbits/s dup=1 drop=0 speed= 6.1x    frame=27638 fps=146 q=32.0 size=   36508kB time=00:19:12.87 bitrate= 259.4kbits/s dup=1 drop=0 speed= 6.1x    frame=27729 fps=146 q=32.0 size=   36608kB time=00:19:16.67 bitrate= 259.3kbits/s dup=1 drop=0 speed=6.11x    frame=27795 fps=146 q=32.0 size=   36698kB time=00:19:19.44 bitrate= 259.3kbits/s dup=1 drop=0 speed= 6.1x    frame=27844 fps=146 q=32.0 size=   36792kB time=00:19:21.49 bitrate= 259.5kbits/s dup=1 drop=0 speed= 6.1x    frame=27920 fps=146 q=32.0 size=   36924kB time=00:19:24.65 bitrate= 259.7kbits/s dup=1 drop=0 speed= 6.1x    frame=27994 fps=146 q=32.0 size=   37019kB time=00:19:27.72 bitrate= 259.7kbits/s dup=1 drop=0 speed=6.09x    frame=28056 fps=146 q=32.0 size=   37093kB time=00:19:30.32 bitrate= 259.6kbits/s dup=1 drop=0 speed=6.09x    frame=28157 fps=146 q=32.0 size=   37208kB time=00:19:34.55 bitrate= 259.5kbits/s dup=1 drop=0 speed= 6.1x    frame=28246 fps=146 q=32.0 size=   37276kB time=00:19:38.26 bitrate= 259.2kbits/s dup=1 drop=0 speed= 6.1x    frame=28312 fps=146 q=32.0 size=   37375kB time=00:19:41.03 bitrate= 259.2kbits/s dup=1 drop=0 speed= 6.1x    frame=28380 fps=146 q=32.0 size=   37471kB time=00:19:43.85 bitrate= 259.3kbits/s dup=1 drop=0 speed= 6.1x    frame=28434 fps=146 q=32.0 size=   37535kB time=00:19:46.11 bitrate= 259.2kbits/s dup=1 drop=0 speed=6.09x    frame=28520 fps=146 q=32.0 size=   37661kB time=00:19:49.69 bitrate= 259.3kbits/s dup=1 drop=0 speed= 6.1x    frame=28568 fps=146 q=32.0 size=   37755kB time=00:19:51.65 bitrate= 259.5kbits/s dup=1 drop=0 speed=6.09x    frame=28650 fps=146 q=32.0 size=   37876kB time=00:19:55.11 bitrate= 259.6kbits/s dup=1 drop=0 speed=6.09x    frame=28722 fps=146 q=32.0 size=   37964kB time=00:19:58.10 bitrate= 259.6kbits/s dup=1 drop=0 speed=6.09x    frame=28790 fps=146 q=32.0 size=   38034kB time=00:20:00.91 bitrate= 259.4kbits/s dup=1 drop=0 speed=6.09x    frame=28873 fps=146 q=32.0 size=   38128kB time=00:20:04.41 bitrate= 259.3kbits/s dup=1 drop=0 speed=6.09x    frame=28944 fps=146 q=32.0 size=   38208kB time=00:20:07.36 bitrate= 259.2kbits/s dup=1 drop=0 speed=6.09x    frame=29022 fps=146 q=32.0 size=   38266kB time=00:20:10.64 bitrate= 258.9kbits/s dup=1 drop=0 speed=6.09x    frame=29086 fps=146 q=32.0 size=   38347kB time=00:20:13.29 bitrate= 258.9kbits/s dup=1 drop=0 speed=6.09x    frame=29148 fps=146 q=32.0 size=   38427kB time=00:20:15.85 bitrate= 258.9kbits/s dup=1 drop=0 speed=6.09x    frame=29219 fps=146 q=32.0 size=   38497kB time=00:20:18.83 bitrate= 258.7kbits/s dup=1 drop=0 speed=6.09x    frame=29305 fps=146 q=32.0 size=   38596kB time=00:20:22.42 bitrate= 258.7kbits/s dup=1 drop=0 speed=6.09x    frame=29377 fps=146 q=32.0 size=   38678kB time=00:20:25.40 bitrate= 258.6kbits/s dup=1 drop=0 speed=6.09x    frame=29453 fps=146 q=32.0 size=   38758kB time=00:20:28.56 bitrate= 258.4kbits/s dup=1 drop=0 speed=6.09x    frame=29515 fps=146 q=32.0 size=   38849kB time=00:20:31.16 bitrate= 258.5kbits/s dup=1 drop=0 speed=6.09x    frame=29587 fps=146 q=32.0 size=   38924kB time=00:20:34.15 bitrate= 258.4kbits/s dup=1 drop=0 speed=6.09x    frame=29665 fps=146 q=32.0 size=   39014kB time=00:20:37.44 bitrate= 258.3kbits/s dup=1 drop=0 speed=6.09x    frame=29729 fps=146 q=32.0 size=   39083kB time=00:20:40.08 bitrate= 258.2kbits/s dup=1 drop=0 speed=6.09x    frame=29777 fps=146 q=32.0 size=   39179kB time=00:20:42.13 bitrate= 258.4kbits/s dup=1 drop=0 speed=6.08x    frame=29856 fps=146 q=32.0 size=   39264kB time=00:20:45.41 bitrate= 258.3kbits/s dup=1 drop=0 speed=6.08x    frame=29934 fps=146 q=32.0 size=   39353kB time=00:20:48.66 bitrate= 258.2kbits/s dup=1 drop=0 speed=6.08x    frame=29999 fps=146 q=32.0 size=   39446kB time=00:20:51.35 bitrate= 258.2kbits/s dup=1 drop=0 speed=6.08x    frame=30057 fps=146 q=32.0 size=   39520kB time=00:20:53.78 bitrate= 258.2kbits/s dup=1 drop=0 speed=6.08x    frame=30094 fps=146 q=32.0 size=   39596kB time=00:20:55.31 bitrate= 258.4kbits/s dup=1 drop=0 speed=6.07x    frame=30155 fps=145 q=32.0 size=   39674kB time=00:20:57.87 bitrate= 258.4kbits/s dup=1 drop=0 speed=6.07x    frame=30241 fps=146 q=32.0 size=   39755kB time=00:21:01.50 bitrate= 258.2kbits/s dup=1 drop=0 speed=6.07x    frame=30308 fps=146 q=32.0 size=   39843kB time=00:21:04.23 bitrate= 258.2kbits/s dup=1 drop=0 speed=6.07x    frame=30397 fps=146 q=32.0 size=   39911kB time=00:21:07.94 bitrate= 257.9kbits/s dup=1 drop=0 speed=6.07x    frame=30470 fps=146 q=32.0 size=   40004kB time=00:21:11.01 bitrate= 257.8kbits/s dup=1 drop=0 speed=6.07x    frame=30542 fps=146 q=32.0 size=   40097kB time=00:21:14.00 bitrate= 257.8kbits/s dup=1 drop=0 speed=6.07x    frame=30623 fps=146 q=32.0 size=   40189kB time=00:21:17.41 bitrate= 257.7kbits/s dup=1 drop=0 speed=6.07x    frame=30692 fps=146 q=32.0 size=   40262kB time=00:21:20.27 bitrate= 257.6kbits/s dup=1 drop=0 speed=6.07x    frame=30761 fps=146 q=32.0 size=   40336kB time=00:21:23.17 bitrate= 257.5kbits/s dup=1 drop=0 speed=6.07x    frame=30821 fps=145 q=32.0 size=   40396kB time=00:21:25.65 bitrate= 257.4kbits/s dup=1 drop=0 speed=6.07x    frame=30903 fps=146 q=32.0 size=   40491kB time=00:21:29.06 bitrate= 257.3kbits/s dup=1 drop=0 speed=6.07x    frame=30986 fps=146 q=32.0 size=   40545kB time=00:21:32.52 bitrate= 257.0kbits/s dup=1 drop=0 speed=6.07x    frame=31076 fps=146 q=32.0 size=   40633kB time=00:21:36.27 bitrate= 256.8kbits/s dup=1 drop=0 speed=6.08x    frame=31147 fps=146 q=32.0 size=   40685kB time=00:21:39.22 bitrate= 256.5kbits/s dup=1 drop=0 speed=6.07x    frame=31190 fps=145 q=32.0 size=   40788kB time=00:21:41.05 bitrate= 256.8kbits/s dup=1 drop=0 speed=6.07x    frame=31250 fps=145 q=32.0 size=   40876kB time=00:21:43.53 bitrate= 256.9kbits/s dup=1 drop=0 speed=6.07x    frame=31313 fps=145 q=32.0 size=   40939kB time=00:21:46.21 bitrate= 256.8kbits/s dup=1 drop=0 speed=6.06x    frame=31378 fps=145 q=32.0 size=   41041kB time=00:21:48.86 bitrate= 256.9kbits/s dup=1 drop=0 speed=6.06x    frame=31427 fps=145 q=32.0 size=   41162kB time=00:21:50.91 bitrate= 257.2kbits/s dup=1 drop=0 speed=6.06x    frame=31475 fps=145 q=32.0 size=   41278kB time=00:21:52.91 bitrate= 257.6kbits/s dup=1 drop=0 speed=6.05x    frame=31518 fps=145 q=32.0 size=   41397kB time=00:21:54.71 bitrate= 257.9kbits/s dup=1 drop=0 speed=6.05x    frame=31561 fps=145 q=32.0 size=   41512kB time=00:21:56.50 bitrate= 258.3kbits/s dup=1 drop=0 speed=6.04x    frame=31612 fps=145 q=32.0 size=   41665kB time=00:21:58.63 bitrate= 258.8kbits/s dup=1 drop=0 speed=6.04x    frame=31664 fps=145 q=32.0 size=   41779kB time=00:22:00.81 bitrate= 259.1kbits/s dup=1 drop=0 speed=6.03x    frame=31727 fps=145 q=32.0 size=   41885kB time=00:22:03.41 bitrate= 259.3kbits/s dup=1 drop=0 speed=6.03x    frame=31785 fps=145 q=32.0 size=   42021kB time=00:22:05.84 bitrate= 259.6kbits/s dup=1 drop=0 speed=6.03x    frame=31824 fps=144 q=32.0 size=   42128kB time=00:22:07.46 bitrate= 260.0kbits/s dup=1 drop=0 speed=6.02x    frame=31864 fps=144 q=32.0 size=   42241kB time=00:22:09.13 bitrate= 260.3kbits/s dup=1 drop=0 speed=6.02x    frame=31912 fps=144 q=32.0 size=   42335kB time=00:22:11.13 bitrate= 260.5kbits/s dup=1 drop=0 speed=6.01x    frame=31967 fps=144 q=32.0 size=   42471kB time=00:22:13.44 bitrate= 260.9kbits/s dup=1 drop=0 speed=6.01x    frame=32028 fps=144 q=32.0 size=   42565kB time=00:22:15.95 bitrate= 261.0kbits/s dup=1 drop=0 speed=   6x    frame=32084 fps=144 q=32.0 size=   42666kB time=00:22:18.34 bitrate= 261.2kbits/s dup=1 drop=0 speed=   6x    frame=32133 fps=144 q=32.0 size=   42765kB time=00:22:20.39 bitrate= 261.4kbits/s dup=1 drop=0 speed=   6x    frame=32225 fps=144 q=32.0 size=   42865kB time=00:22:24.23 bitrate= 261.2kbits/s dup=1 drop=0 speed=   6x    frame=32280 fps=144 q=32.0 size=   42979kB time=00:22:26.53 bitrate= 261.5kbits/s dup=1 drop=0 speed=   6x    frame=32350 fps=144 q=32.0 size=   43091kB time=00:22:29.44 bitrate= 261.6kbits/s dup=1 drop=0 speed=   6x    frame=32399 fps=144 q=32.0 size=   43205kB time=00:22:31.44 bitrate= 261.9kbits/s dup=1 drop=0 speed=5.99x    frame=32447 fps=144 q=32.0 size=   43324kB time=00:22:33.49 bitrate= 262.2kbits/s dup=1 drop=0 speed=5.99x    frame=32502 fps=143 q=32.0 size=   43418kB time=00:22:35.75 bitrate= 262.4kbits/s dup=1 drop=0 speed=5.98x    frame=32554 fps=143 q=32.0 size=   43538kB time=00:22:37.93 bitrate= 262.7kbits/s dup=1 drop=0 speed=5.98x    frame=32597 fps=143 q=32.0 size=   43678kB time=00:22:39.72 bitrate= 263.2kbits/s dup=1 drop=0 speed=5.97x    frame=32644 fps=143 q=32.0 size=   43804kB time=00:22:41.68 bitrate= 263.5kbits/s dup=1 drop=0 speed=5.97x    frame=32686 fps=143 q=32.0 size=   43898kB time=00:22:43.43 bitrate= 263.8kbits/s dup=1 drop=0 speed=5.96x    frame=32746 fps=143 q=32.0 size=   44028kB time=00:22:45.95 bitrate= 264.1kbits/s dup=1 drop=0 speed=5.96x    frame=32802 fps=143 q=32.0 size=   44121kB time=00:22:48.29 bitrate= 264.2kbits/s dup=1 drop=0 speed=5.96x    frame=32846 fps=143 q=32.0 size=   44219kB time=00:22:50.09 bitrate= 264.4kbits/s dup=1 drop=0 speed=5.95x    frame=32914 fps=143 q=32.0 size=   44315kB time=00:22:52.95 bitrate= 264.4kbits/s dup=1 drop=0 speed=5.95x    frame=32970 fps=143 q=32.0 size=   44438kB time=00:22:55.25 bitrate= 264.7kbits/s dup=1 drop=0 speed=5.95x    frame=33028 fps=143 q=32.0 size=   44531kB time=00:22:57.68 bitrate= 264.8kbits/s dup=1 drop=0 speed=5.95x    frame=33085 fps=142 q=32.0 size=   44620kB time=00:23:00.07 bitrate= 264.9kbits/s dup=1 drop=0 speed=5.94x    frame=33140 fps=142 q=32.0 size=   44732kB time=00:23:02.37 bitrate= 265.1kbits/s dup=1 drop=0 speed=5.94x    frame=33188 fps=142 q=32.0 size=   44833kB time=00:23:04.38 bitrate= 265.3kbits/s dup=1 drop=0 speed=5.94x    frame=33237 fps=142 q=32.0 size=   44942kB time=00:23:06.39 bitrate= 265.6kbits/s dup=1 drop=0 speed=5.93x    frame=33314 fps=142 q=32.0 size=   45037kB time=00:23:09.63 bitrate= 265.5kbits/s dup=1 drop=0 speed=5.93x    frame=33390 fps=142 q=32.0 size=   45124kB time=00:23:12.79 bitrate= 265.4kbits/s dup=1 drop=0 speed=5.93x    frame=33432 fps=142 q=32.0 size=   45191kB time=00:23:14.53 bitrate= 265.5kbits/s dup=1 drop=0 speed=5.93x    frame=33482 fps=142 q=32.0 size=   45278kB time=00:23:16.63 bitrate= 265.6kbits/s dup=1 drop=0 speed=5.92x    frame=33540 fps=142 q=32.0 size=   45385kB time=00:23:19.06 bitrate= 265.7kbits/s dup=1 drop=0 speed=5.92x    frame=33586 fps=142 q=32.0 size=   45493kB time=00:23:20.98 bitrate= 266.0kbits/s dup=1 drop=0 speed=5.92x    frame=33640 fps=142 q=32.0 size=   45563kB time=00:23:23.24 bitrate= 266.0kbits/s dup=1 drop=0 speed=5.92x    frame=33694 fps=142 q=32.0 size=   45641kB time=00:23:25.50 bitrate= 266.0kbits/s dup=1 drop=0 speed=5.91x    frame=33748 fps=142 q=32.0 size=   45723kB time=00:23:27.72 bitrate= 266.1kbits/s dup=1 drop=0 speed=5.91x    frame=33795 fps=142 q=32.0 size=   45802kB time=00:23:29.72 bitrate= 266.2kbits/s dup=1 drop=0 speed= 5.9x    frame=33841 fps=141 q=32.0 size=   45888kB time=00:23:31.60 bitrate= 266.3kbits/s dup=1 drop=0 speed= 5.9x    frame=33892 fps=141 q=32.0 size=   45958kB time=00:23:33.73 bitrate= 266.3kbits/s dup=1 drop=0 speed= 5.9x    frame=33957 fps=141 q=32.0 size=   46034kB time=00:23:36.47 bitrate= 266.2kbits/s dup=1 drop=0 speed= 5.9x    frame=34004 fps=141 q=32.0 size=   46146kB time=00:23:38.39 bitrate= 266.5kbits/s dup=1 drop=0 speed=5.89x    frame=34072 fps=141 q=32.0 size=   46234kB time=00:23:41.24 bitrate= 266.5kbits/s dup=1 drop=0 speed=5.89x    frame=34159 fps=141 q=32.0 size=   46335kB time=00:23:44.87 bitrate= 266.4kbits/s dup=1 drop=0 speed=5.89x    frame=34245 fps=141 q=32.0 size=   46429kB time=00:23:48.45 bitrate= 266.3kbits/s dup=1 drop=0 speed= 5.9x    frame=34304 fps=141 q=32.0 size=   46504kB time=00:23:50.93 bitrate= 266.2kbits/s dup=1 drop=0 speed=5.89x    frame=34357 fps=141 q=32.0 size=   46608kB time=00:23:53.15 bitrate= 266.4kbits/s dup=1 drop=0 speed=5.89x    frame=34457 fps=141 q=32.0 size=   46716kB time=00:23:57.29 bitrate= 266.3kbits/s dup=1 drop=0 speed= 5.9x    frame=34499 fps=141 q=32.0 size=   46816kB time=00:23:59.08 bitrate= 266.5kbits/s dup=1 drop=0 speed=5.89x    frame=34579 fps=141 q=32.0 size=   46897kB time=00:24:02.41 bitrate= 266.3kbits/s dup=1 drop=0 speed=5.89x    frame=34651 fps=141 q=32.0 size=   47003kB time=00:24:05.39 bitrate= 266.4kbits/s dup=1 drop=0 speed=5.89x    frame=34723 fps=141 q=32.0 size=   47093kB time=00:24:08.38 bitrate= 266.4kbits/s dup=1 drop=0 speed=5.89x    frame=34767 fps=141 q=32.0 size=   47168kB time=00:24:10.21 bitrate= 266.4kbits/s dup=1 drop=0 speed=5.89x    frame=34803 fps=141 q=32.0 size=   47284kB time=00:24:11.75 bitrate= 266.8kbits/s dup=1 drop=0 speed=5.88x    frame=34881 fps=141 q=32.0 size=   47422kB time=00:24:14.95 bitrate= 267.0kbits/s dup=1 drop=0 speed=5.88x    frame=34973 fps=141 q=32.0 size=   47517kB time=00:24:18.79 bitrate= 266.8kbits/s dup=1 drop=0 speed=5.89x    frame=35064 fps=141 q=32.0 size=   47641kB time=00:24:22.63 bitrate= 266.8kbits/s dup=1 drop=0 speed=5.89x    frame=35160 fps=141 q=32.0 size=   47752kB time=00:24:26.60 bitrate= 266.7kbits/s dup=1 drop=0 speed=5.89x    [mp4 @ 0x3235620] Starting second pass: moving the moov atom to the beginning of the file
frame=35230 fps=141 q=-1.0 Lsize=   48676kB time=00:24:29.37 bitrate= 271.4kbits/s dup=1 drop=0 speed=5.89x    
video:38372kB audio:9468kB subtitle:0kB other streams:0kB global headers:0kB muxing overhead: 1.746745%
[libx264 @ 0x32a6060] frame I:359   Avg QP:22.15  size: 14729
[libx264 @ 0x32a6060] frame P:11367 Avg QP:24.62  size:  2417
[libx264 @ 0x32a6060] frame B:23504 Avg QP:28.71  size:   278
[libx264 @ 0x32a6060] consecutive B-frames:  3.4% 11.0% 36.2% 49.4%
[libx264 @ 0x32a6060] mb I  I16..4: 29.5% 49.8% 20.7%
[libx264 @ 0x32a6060] mb P  I16..4:  5.7%  5.5%  1.0%  P16..4: 31.9%  4.1%  3.4%  0.1%  0.0%    skip:48.2%
[libx264 @ 0x32a6060] mb B  I16..4:  0.2%  0.2%  0.0%  B16..8: 12.3%  0.6%  0.1%  direct: 0.5%  skip:86.1%  L0:37.2% L1:61.1% BI: 1.7%
[libx264 @ 0x32a6060] 8x8 transform intra:45.9% inter:60.5%
[libx264 @ 0x32a6060] coded y,uvDC,uvAC intra: 25.6% 49.0% 8.8% inter: 1.6% 4.4% 0.0%
[libx264 @ 0x32a6060] i16 v,h,dc,p: 43% 32% 16%  9%
[libx264 @ 0x32a6060] i8 v,h,dc,ddl,ddr,vr,hd,vl,hu: 24% 19% 42%  3%  2%  3%  2%  3%  3%
[libx264 @ 0x32a6060] i4 v,h,dc,ddl,ddr,vr,hd,vl,hu: 27% 22% 18%  5%  5%  5%  6%  5%  5%
[libx264 @ 0x32a6060] i8c dc,h,v,p: 46% 25% 23%  5%
[libx264 @ 0x32a6060] Weighted P-Frames: Y:2.8% UV:1.9%
[libx264 @ 0x32a6060] ref P L0: 62.7% 10.5% 12.2%  4.2%  3.2%  2.8%  2.5%  1.4%  0.5%  0.0%
[libx264 @ 0x32a6060] ref B L0: 85.6%  6.3%  3.7%  1.5%  1.2%  1.0%  0.7%
[libx264 @ 0x32a6060] ref B L1: 93.6%  6.4%
[libx264 @ 0x32a6060] kb/s:213.93
